<mxfile host="app.diagrams.net" modified="2020-12-07T16:03:38.920Z" agent="5.0 (Macintosh; Intel Mac OS X 10_15_4) AppleWebKit/537.36 (KHTML, like Gecko) Chrome/84.0.4147.89 Safari/537.36" etag="iMt8KgY0dslZNzpZ2rVD" version="13.11.0" type="github">
  <diagram id="Ff-lQ3XysJ4GWBvaAmEk" name="Page-1">
    <mxGraphModel dx="1186" dy="764" grid="1" gridSize="10" guides="1" tooltips="1" connect="1" arrows="1" fold="1" page="1" pageScale="1" pageWidth="827" pageHeight="1169" math="0" shadow="0">
      <root>
        <mxCell id="0" />
        <mxCell id="1" parent="0" />
        <mxCell id="syzLjuOFg5MKVUdLKTnV-1" value="Rich&lt;br&gt;ObjectModel&lt;br&gt;dxos/person" style="rounded=0;whiteSpace=wrap;html=1;verticalAlign=top;" vertex="1" parent="1">
          <mxGeometry x="160" y="200" width="130" height="130" as="geometry" />
        </mxCell>
        <mxCell id="syzLjuOFg5MKVUdLKTnV-2" value="WorksFor&lt;br&gt;ObjectModel&lt;br&gt;dxos/link/works-for" style="rounded=0;whiteSpace=wrap;html=1;verticalAlign=top;" vertex="1" parent="1">
          <mxGeometry x="360" y="200" width="130" height="60" as="geometry" />
        </mxCell>
        <mxCell id="syzLjuOFg5MKVUdLKTnV-3" value="Wireline&lt;br&gt;ObjectModel&lt;br&gt;dxos/org" style="rounded=0;whiteSpace=wrap;html=1;verticalAlign=top;" vertex="1" parent="1">
          <mxGeometry x="580" y="200" width="130" height="130" as="geometry" />
        </mxCell>
        <mxCell id="syzLjuOFg5MKVUdLKTnV-5" style="edgeStyle=orthogonalEdgeStyle;rounded=0;orthogonalLoop=1;jettySize=auto;html=1;exitX=0;exitY=0.5;exitDx=0;exitDy=0;entryX=1;entryY=0.577;entryDx=0;entryDy=0;entryPerimeter=0;" edge="1" parent="1" source="syzLjuOFg5MKVUdLKTnV-4" target="syzLjuOFg5MKVUdLKTnV-1">
          <mxGeometry relative="1" as="geometry" />
        </mxCell>
        <mxCell id="syzLjuOFg5MKVUdLKTnV-4" value="person: Link" style="rounded=0;whiteSpace=wrap;html=1;" vertex="1" parent="1">
          <mxGeometry x="360" y="260" width="130" height="30" as="geometry" />
        </mxCell>
        <mxCell id="syzLjuOFg5MKVUdLKTnV-7" style="edgeStyle=orthogonalEdgeStyle;rounded=0;orthogonalLoop=1;jettySize=auto;html=1;exitX=1;exitY=0.5;exitDx=0;exitDy=0;entryX=0;entryY=0.808;entryDx=0;entryDy=0;entryPerimeter=0;" edge="1" parent="1" source="syzLjuOFg5MKVUdLKTnV-6" target="syzLjuOFg5MKVUdLKTnV-3">
          <mxGeometry relative="1" as="geometry" />
        </mxCell>
        <mxCell id="syzLjuOFg5MKVUdLKTnV-6" value="org: Link" style="rounded=0;whiteSpace=wrap;html=1;" vertex="1" parent="1">
          <mxGeometry x="360" y="290" width="130" height="30" as="geometry" />
        </mxCell>
        <mxCell id="syzLjuOFg5MKVUdLKTnV-8" value="Text document&lt;br&gt;ObjectModel&lt;br&gt;dxos/teamwork/text" style="rounded=0;whiteSpace=wrap;html=1;verticalAlign=top;" vertex="1" parent="1">
          <mxGeometry x="160" y="510" width="130" height="50" as="geometry" />
        </mxCell>
        <mxCell id="syzLjuOFg5MKVUdLKTnV-9" value="Text editor&lt;br&gt;TextModel" style="rounded=0;whiteSpace=wrap;html=1;verticalAlign=top;" vertex="1" parent="1">
          <mxGeometry x="360" y="510" width="130" height="80" as="geometry" />
        </mxCell>
        <mxCell id="syzLjuOFg5MKVUdLKTnV-10" style="edgeStyle=orthogonalEdgeStyle;rounded=0;orthogonalLoop=1;jettySize=auto;html=1;exitX=1;exitY=0.5;exitDx=0;exitDy=0;entryX=0;entryY=0.5;entryDx=0;entryDy=0;" edge="1" parent="1" source="syzLjuOFg5MKVUdLKTnV-11" target="syzLjuOFg5MKVUdLKTnV-9">
          <mxGeometry relative="1" as="geometry">
            <mxPoint x="360" y="575" as="targetPoint" />
          </mxGeometry>
        </mxCell>
        <mxCell id="syzLjuOFg5MKVUdLKTnV-11" value="doc: Link" style="rounded=0;whiteSpace=wrap;html=1;" vertex="1" parent="1">
          <mxGeometry x="160" y="560" width="130" height="30" as="geometry" />
        </mxCell>
        <mxCell id="syzLjuOFg5MKVUdLKTnV-13" value="Trello card&lt;br&gt;ObjectModel&lt;br&gt;dxos/teamwork/text" style="rounded=0;whiteSpace=wrap;html=1;verticalAlign=top;" vertex="1" parent="1">
          <mxGeometry x="160" y="680" width="130" height="50" as="geometry" />
        </mxCell>
        <mxCell id="syzLjuOFg5MKVUdLKTnV-14" value="Title&lt;br&gt;TextModel" style="rounded=0;whiteSpace=wrap;html=1;verticalAlign=top;" vertex="1" parent="1">
          <mxGeometry x="360" y="680" width="130" height="40" as="geometry" />
        </mxCell>
        <mxCell id="syzLjuOFg5MKVUdLKTnV-15" style="edgeStyle=orthogonalEdgeStyle;rounded=0;orthogonalLoop=1;jettySize=auto;html=1;exitX=1;exitY=0.5;exitDx=0;exitDy=0;entryX=0;entryY=0.5;entryDx=0;entryDy=0;" edge="1" parent="1" source="syzLjuOFg5MKVUdLKTnV-16" target="syzLjuOFg5MKVUdLKTnV-14">
          <mxGeometry relative="1" as="geometry">
            <mxPoint x="360" y="745" as="targetPoint" />
          </mxGeometry>
        </mxCell>
        <mxCell id="syzLjuOFg5MKVUdLKTnV-16" value="title: Link" style="rounded=0;whiteSpace=wrap;html=1;" vertex="1" parent="1">
          <mxGeometry x="160" y="730" width="130" height="30" as="geometry" />
        </mxCell>
        <mxCell id="syzLjuOFg5MKVUdLKTnV-17" value="Description&lt;br&gt;TextModel" style="rounded=0;whiteSpace=wrap;html=1;verticalAlign=top;" vertex="1" parent="1">
          <mxGeometry x="360" y="760" width="130" height="40" as="geometry" />
        </mxCell>
        <mxCell id="syzLjuOFg5MKVUdLKTnV-19" style="edgeStyle=orthogonalEdgeStyle;rounded=0;orthogonalLoop=1;jettySize=auto;html=1;exitX=1;exitY=0.5;exitDx=0;exitDy=0;" edge="1" parent="1" source="syzLjuOFg5MKVUdLKTnV-18" target="syzLjuOFg5MKVUdLKTnV-17">
          <mxGeometry relative="1" as="geometry" />
        </mxCell>
        <mxCell id="syzLjuOFg5MKVUdLKTnV-18" value="description: Link" style="rounded=0;whiteSpace=wrap;html=1;" vertex="1" parent="1">
          <mxGeometry x="160" y="760" width="130" height="30" as="geometry" />
        </mxCell>
      </root>
    </mxGraphModel>
  </diagram>
</mxfile>
